<svg width="1440" height="163" viewBox="0 0 1440 163" fill="none" xmlns="http://www.w3.org/2000/svg">
<rect width="1440" height="163" fill="white"/>
<path d="M0 79.8512L80 65.4071C160 50.6918 320 22.2105 480 14.7512C640 7.29179 800 22.2105 960 29.1952C1120 36.4512 1280 36.4512 1360 36.4512H1440V144.951H1360C1280 144.951 1120 144.951 960 144.951C800 144.951 640 144.951 480 144.951C320 144.951 160 144.951 80 144.951H0V79.8512Z" fill="#000C1A" fill-opacity="0.4"/>
<path d="M0 70.8267L80 56.3827C160 41.6674 320 13.1861 480 5.72675C640 -1.73263 800 13.1861 960 20.1708C1120 27.4267 1280 27.4267 1360 27.4267H1440V135.927H1360C1280 135.927 1120 135.927 960 135.927C800 135.927 640 135.927 480 135.927C320 135.927 160 135.927 80 135.927H0V70.8267Z" fill="url(#paint0_linear)" fill-opacity="0.6"/>
<path d="M0 97.9L80 83.4559C160 68.7406 320 40.2594 480 32.8C640 25.3406 800 40.2594 960 47.2441C1120 54.5 1280 54.5 1360 54.5H1440V163H1360C1280 163 1120 163 960 163C800 163 640 163 480 163C320 163 160 163 80 163H0V97.9Z" fill="#000C1A"/>
<defs>
<linearGradient id="paint0_linear" x1="379" y1="-34.6349" x2="1218.78" y2="142.903" gradientUnits="userSpaceOnUse">
<stop stop-color="#000C1A"/>
<stop offset="1" stop-color="#0085FF" stop-opacity="0.68"/>
</linearGradient>
</defs>
</svg>
