<svg width="1440" height="373" viewBox="0 0 1440 373" fill="none" xmlns="http://www.w3.org/2000/svg">
<rect width="1440" height="67" fill="black"/>
<rect y="81" width="1440" height="292" fill="#0085FF"/>
<path d="M0 123.5L60 144.109C120 164.409 240 206.091 360 197.6C480 189.109 600 131.991 720 107.059C840 82.5906 960 90.3094 1080 119.409C1200 148.2 1320 197.6 1380 222.3L1440 247V-7.62939e-06H1380C1320 -7.62939e-06 1200 -7.62939e-06 1080 -7.62939e-06C960 -7.62939e-06 840 -7.62939e-06 720 -7.62939e-06C600 -7.62939e-06 480 -7.62939e-06 360 -7.62939e-06C240 -7.62939e-06 120 -7.62939e-06 60 -7.62939e-06H0V123.5Z" fill="#000C1A"/>
<path d="M0 147.5L60.0417 168.109C120.083 188.409 240.167 230.091 360.25 221.6C480.333 213.109 600.417 155.991 720.5 131.059C840.583 106.591 960.667 114.309 1080.75 143.409C1200.83 172.2 1320.92 221.6 1380.96 246.3L1441 271V24H1380.96C1320.92 24 1200.83 24 1080.75 24C960.667 24 840.583 24 720.5 24C600.417 24 480.333 24 360.25 24C240.167 24 120.083 24 60.0417 24H0V147.5Z" fill="#000C1A" fill-opacity="0.6"/>
<path d="M0 167.5L60.0417 188.109C120.083 208.409 240.167 250.091 360.25 241.6C480.333 233.109 600.417 175.991 720.5 151.059C840.583 126.591 960.667 134.309 1080.75 163.409C1200.83 192.2 1320.92 241.6 1380.96 266.3L1441 291V44H1380.96C1320.92 44 1200.83 44 1080.75 44C960.667 44 840.583 44 720.5 44C600.417 44 480.333 44 360.25 44C240.167 44 120.083 44 60.0417 44H0V167.5Z" fill="#000C1A" fill-opacity="0.5"/>
<path d="M0 187.5L60.0417 208.109C120.083 228.409 240.167 270.091 360.25 261.6C480.333 253.109 600.417 195.991 720.5 171.059C840.583 146.591 960.667 154.309 1080.75 183.409C1200.83 212.2 1320.92 261.6 1380.96 286.3L1441 311V64H1380.96C1320.92 64 1200.83 64 1080.75 64C960.667 64 840.583 64 720.5 64C600.417 64 480.333 64 360.25 64C240.167 64 120.083 64 60.0417 64H0V187.5Z" fill="#000C1A" fill-opacity="0.4"/>
<path d="M0 207.5L60.0417 228.109C120.083 248.409 240.167 290.091 360.25 281.6C480.333 273.109 600.417 215.991 720.5 191.059C840.583 166.591 960.667 174.309 1080.75 203.409C1200.83 232.2 1320.92 281.6 1380.96 306.3L1441 331V84H1380.96C1320.92 84 1200.83 84 1080.75 84C960.667 84 840.583 84 720.5 84C600.417 84 480.333 84 360.25 84C240.167 84 120.083 84 60.0417 84H0V207.5Z" fill="#000C1A" fill-opacity="0.3"/>
<path d="M0 227.5L60.0417 248.109C120.083 268.409 240.167 310.091 360.25 301.6C480.333 293.109 600.417 235.991 720.5 211.059C840.583 186.591 960.667 194.309 1080.75 223.409C1200.83 252.2 1320.92 301.6 1380.96 326.3L1441 351V81H1380.96C1320.92 81 1200.83 81 1080.75 81C960.667 81 840.583 81 720.5 81C600.417 81 480.333 81 360.25 81C240.167 81 120.083 81 60.0417 81H0V227.5Z" fill="#000C1A" fill-opacity="0.3"/>
</svg>
